<svg xmlns="http://www.w3.org/2000/svg" viewBox="0 0 32 32" width="96" height="96">
    <path style="text-indent:0;text-align:start;line-height:normal;text-transform:none;block-progression:tb;-inkscape-font-specification:Bitstream Vera Sans" d="M 6.8125 2.40625 L 5.40625 3.8125 L 7.5 5.90625 L 8.90625 4.5 L 6.8125 2.40625 Z M 25.1875 2.40625 L 23.0938 4.5 L 24.5 5.90625 L 26.5938 3.8125 L 25.1875 2.40625 Z M 16 3.03125 C 15.671 3.03437 15.3357 3.05301 15 3.09375 C 14.9892 3.09507 14.9796 3.09239 14.9688 3.09375 C 10.9144 3.55867 7.68601 6.83575 7.125 10.875 C 6.67696 14.1233 8.01703 17.0707 10.25 18.9688 C 11.2059 19.7881 11.7975 20.8832 12 22 L 12 23 L 12 27 L 12 28 L 13 28 L 14.2813 28 C 14.6283 28.5969 15.2635 29 16 29 C 16.7365 29 17.3717 28.5969 17.7188 28 L 19 28 L 20 28 L 20 27 L 20 24 L 20.0938 24 L 20.0938 23 L 20.0938 22.8125 C 20.0938 21.3458 20.8557 19.8684 22.0938 18.7188 C 23.7509 17.0616 25 14.7056 25 12 C 25 7.05851 20.9344 2.98442 16 3.03125 Z M 16 5.03125 C 19.8647 4.97638 23 8.13896 23 12 C 23 14.0944 22.0304 15.9384 20.6875 17.2813 L 20.7188 17.3125 C 19.3755 18.5664 18.5168 20.208 18.2813 22 L 13.9063 22 C 13.6868 20.2858 12.9507 18.6274 11.5625 17.4375 C 9.79547 15.9355 8.74179 13.6767 9.09375 11.125 C 9.53134 7.97438 12.0874 5.44168 15.2188 5.09375 C 15.4822 5.06082 15.7424 5.03491 16 5.03125 Z M 2 12 L 2 14 L 5 14 L 5 12 L 2 12 Z M 27 12 L 27 14 L 30 14 L 30 12 L 27 12 Z M 7.5 20.0938 L 5.40625 22.1875 L 6.8125 23.5938 L 8.90625 21.5 L 7.5 20.0938 Z M 24.5 20.0938 L 23.0938 21.5 L 25.1875 23.5938 L 26.5938 22.1875 L 24.5 20.0938 Z M 14 24 L 18 24 L 18 26 L 14 26 L 14 24 Z" />
</svg>